<svg xmlns="http://www.w3.org/2000/svg" viewBox="0 0 36 36" width="36" height="36">
  <rect width="36" height="36" rx="4" fill="#1a1a2e"/>
  <path d="M10,10 Q12,6 14,10 Q14,14 12,16 Q10,14 10,10 Z" fill="#8788EE"/>
  <path d="M16,6 Q18,2 20,6 Q20,10 18,12 Q16,10 16,6 Z" fill="#8788EE"/>
  <path d="M22,10 Q24,6 26,10 Q26,14 24,16 Q22,14 22,10 Z" fill="#8788EE"/>
  <path d="M8,20 Q10,16 12,20 Q12,24 10,26 Q8,24 8,20 Z" fill="#e53e3e" opacity="0.8"/>
  <path d="M14,18 Q16,14 18,18 Q18,22 16,24 Q14,22 14,18 Z" fill="#e53e3e" opacity="0.8"/>
  <path d="M20,20 Q22,16 24,20 Q24,24 22,26 Q20,24 20,20 Z" fill="#e53e3e" opacity="0.8"/>
  <path d="M26,18 Q28,14 30,18 Q30,22 28,24 Q26,22 26,18 Z" fill="#e53e3e" opacity="0.6"/>
  <ellipse cx="18" cy="30" rx="14" ry="3" fill="#8788EE" opacity="0.3"/>
</svg>
