<svg xmlns="http://www.w3.org/2000/svg" viewBox="0 0 36 36" width="36" height="36">
  <rect width="36" height="36" rx="4" fill="#1a1a2e"/>
  <circle cx="18" cy="18" r="12" fill="none" stroke="#f8d648" stroke-width="2"/>
  <circle cx="18" cy="18" r="5" fill="#f8d648"/>
  <circle cx="18" cy="18" r="2.5" fill="#1a1a2e"/>
  <rect x="16" y="3" width="4" height="6" rx="1" fill="#f8d648"/>
  <rect x="16" y="27" width="4" height="6" rx="1" fill="#f8d648"/>
  <rect x="3" y="16" width="6" height="4" rx="1" fill="#f8d648"/>
  <rect x="27" y="16" width="6" height="4" rx="1" fill="#f8d648"/>
  <rect x="6" y="6" width="5" height="4" rx="1" fill="#f8d648" transform="rotate(45 8.5 8)"/>
  <rect x="25" y="6" width="5" height="4" rx="1" fill="#f8d648" transform="rotate(-45 27.5 8)"/>
  <rect x="6" y="26" width="5" height="4" rx="1" fill="#f8d648" transform="rotate(-45 8.5 28)"/>
  <rect x="25" y="26" width="5" height="4" rx="1" fill="#f8d648" transform="rotate(45 27.5 28)"/>
</svg>
